<svg width="1923" height="331" viewBox="0 0 1923 331" fill="none" xmlns="http://www.w3.org/2000/svg">
<path opacity="0.33" d="M1013.47 66.0624C1405.79 -107.584 1519.22 133.687 1629.3 66.7764C1796.17 -35.1643 1922.87 82.1016 1922.87 82.1016L1922.68 199.812L0.000650255 197.583L0.193391 79.8725C0.193391 79.8725 119.676 28.5497 182.75 22.3133C245.824 15.8799 303.454 46.7052 328.418 66.0568C373.16 100.219 489.734 180.997 586.624 188.996C683.515 196.995 976.142 82.3842 1013.47 66.0624Z" fill="#62D2A2"/>
<path opacity="0.66" d="M511.65 65.4806C599.132 65.582 660.006 111.396 759.741 142.862C814.702 160.079 1048.69 163.111 1248.23 66.3346C1447.77 -30.4418 1424.43 134.365 1535.09 66.6671C1700.61 -33.6977 1922.81 121.338 1922.81 121.338L1922.68 199.812L0.000528184 197.583L0.118368 125.616C0.118368 125.616 54.2781 162.155 177.137 162.298C364.983 162.318 431.474 65.3876 511.65 65.4806Z" fill="#62D2A2"/>
<path d="M449.808 141.122C834.158 254.941 961.452 12.569 1209.52 103.555C1457.4 195.724 1457.41 188.625 1567.43 158.783C1676.69 128.94 1668.45 110.988 1750 96.0975C1867.89 74.1511 1922.68 199.812 1922.68 199.812L0.000528184 197.583C0.000528184 197.583 19.167 116.963 160.892 102.931C302.616 88.8987 327.777 105.293 449.808 141.122Z" fill="#62D2A2"/>
<rect width="1922.59" height="135" transform="translate(0 196)" fill="#62D2A2"/>
</svg>
